<?xml version="1.0" encoding="utf-8"?>
<!-- Generator: Adobe Illustrator 23.0.1, SVG Export Plug-In . SVG Version: 6.00 Build 0)  -->
<svg version="1.1" id="like" xmlns="http://www.w3.org/2000/svg" xmlns:xlink="http://www.w3.org/1999/xlink" x="0px" y="0px"
	 viewBox="0 0 74 74" style="enable-background:new 0 0 74 74;" xml:space="preserve">
<style type="text/css">
	.st0{fill:#E21F5D;}
</style>
<g>
	<g>
		<path id="Path_16608" class="st0" d="M65.9,26.7c0-2.6-0.6-5.2-1.8-7.5c0-0.1-0.1-0.1-0.1-0.2c0,0,0-0.1-0.1-0.1
			c-1.8-3.8-5.1-6.8-9.1-8c-0.2-0.1-0.4-0.2-0.6-0.2c-5.1-1.6-10,0-14,3.7c-1.5,1.5-2.4,2.2-3.1,2.3c-0.8-0.1-1.6-0.8-3.1-2.3
			c-4-3.8-8.9-5.4-14-3.7c-0.2,0.1-0.4,0.2-0.6,0.2c-4,1.3-7.3,4.2-9.1,8c0,0,0,0.1-0.1,0.1c0,0.1-0.1,0.1-0.1,0.2
			c-1.2,2.3-1.8,4.9-1.8,7.5C8.1,30,8.7,33.3,10,36.4c2,5,4.7,9.6,8,13.8c3.7,4.8,8.2,8.8,13.4,12c3.4,2.4,7.9,2.4,11.3,0
			c5.1-3.2,9.6-7.3,13.4-12c3.3-4.4,6.2-8.8,8-13.8C65.4,33.3,66,30,65.9,26.7z"/>
	</g>
</g>
</svg>
