<svg id="like" xmlns="http://www.w3.org/2000/svg" xmlns:xlink="http://www.w3.org/1999/xlink" viewBox="0 0 74 74">
  <defs>
    <style>
      .cls-1 {
        clip-path: url(#clip-like);
      }
    </style>
    <clipPath id="clip-like">
      <rect width="74" height="74"/>
    </clipPath>
  </defs>
  <g id="like" class="cls-1">
    <path id="Path_16608" data-name="Path 16608" class="backLike" d="M200.27,16.725a15.613,15.613,0,0,0-1.783-7.464c-.038-.076-.076-.14-.115-.217-.013-.038-.038-.076-.051-.115A15.035,15.035,0,0,0,189.239.88C189.023.8,188.831.7,188.6.638,183.456-1.005,178.578.6,174.566,4.37c-1.541,1.452-2.356,2.2-3.133,2.255-.777-.051-1.592-.8-3.133-2.255C164.286.6,159.408-1.005,154.262.638c-.217.076-.42.166-.637.242a15.035,15.035,0,0,0-9.082,8.05c-.013.038-.038.076-.051.115-.038.076-.076.14-.115.217a15.613,15.613,0,0,0-1.783,7.464,23.582,23.582,0,0,0,1.771,9.782A54.071,54.071,0,0,0,152.4,40.3a51.551,51.551,0,0,0,13.362,12.05,9.843,9.843,0,0,0,11.336,0A51.757,51.757,0,0,0,190.462,40.3c3.261-4.356,6.241-8.827,8.037-13.795A23.582,23.582,0,0,0,200.27,16.725ZM171.98,50.148a3.825,3.825,0,0,1-.548.038,4.1,4.1,0,0,1-.548-.038h-.038c-1.529-.217-3.159-1.248-5.668-3.133a49.606,49.606,0,0,1-16.024-19.743c-2.165-4.891-3.961-9.9-1.414-15.45,2.637-5.77,7.592-8.725,12.661-7.439a10.391,10.391,0,0,1,2.051.866,18.252,18.252,0,0,1,5.388,4.789c1.745,2.216,2.637,3.286,3.579,3.21.93.076,1.834-1.006,3.579-3.21a18.252,18.252,0,0,1,5.388-4.789,10.082,10.082,0,0,1,2.051-.866c5.07-1.3,10.012,1.669,12.661,7.439,2.548,5.553.752,10.547-1.414,15.45a49.586,49.586,0,0,1-16.024,19.743c-2.509,1.872-4.127,2.917-5.668,3.133Z" transform="translate(-134.402 10.004)"/>
  </g>
</svg>
